<?xml version="1.0" standalone="no"?>
<!DOCTYPE svg PUBLIC "-//W3C//DTD SVG 20010904//EN"
 "http://www.w3.org/TR/2001/REC-SVG-20010904/DTD/svg10.dtd">
<svg version="1.0" xmlns="http://www.w3.org/2000/svg"
 width="100.000000pt" height="100.000000pt" viewBox="0 0 100.000000 100.000000"
 preserveAspectRatio="xMidYMid meet">
<metadata>
Created by potrace 1.11, written by Peter Selinger 2001-2013
</metadata>
<g transform="translate(0.000000,100.000000) scale(0.100000,-0.100000)"
fill="#000000" stroke="none">
<path d="M500 913 c0 -25 3 -44 6 -40 3 3 28 -1 55 -9 69 -21 89 -13 85 34 -2
31 -6 37 -27 38 -13 0 -42 6 -64 12 -56 16 -55 17 -55 -35z"/>
<path d="M403 738 l-91 -91 -126 -1 -125 -1 2 -260 2 -260 436 -1 437 0 -2
260 -1 261 -123 1 -124 1 -92 92 c-50 50 -94 91 -96 91 -3 0 -46 -41 -97 -92z"/>
</g>
</svg>
